<?xml version="1.0" standalone="no"?>
<!DOCTYPE svg PUBLIC "-//W3C//DTD SVG 20010904//EN"
 "http://www.w3.org/TR/2001/REC-SVG-20010904/DTD/svg10.dtd">
<svg version="1.0" xmlns="http://www.w3.org/2000/svg"
 width="1204.000000pt" height="1280.000000pt" viewBox="0 0 1204.000000 1280.000000"
 preserveAspectRatio="xMidYMid meet">
<metadata>
Created by potrace 1.15, written by Peter Selinger 2001-2017
</metadata>
<g transform="translate(0.000000,1280.000000) scale(0.100000,-0.100000)"
fill="#000000" stroke="none">
<path d="M5751 12633 c-3 -253 -27 -832 -46 -1128 -97 -1500 -258 -2586 -487
-3294 -162 -502 -311 -742 -668 -1074 -298 -279 -653 -514 -1155 -767 -380
-192 -739 -340 -1128 -466 -146 -47 -147 -48 -147 -77 l0 -29 413 6 c226 3
923 11 1547 16 624 6 1279 13 1455 16 l320 6 -6 1027 c-4 564 -12 1915 -18
3001 -6 1086 -14 2183 -17 2438 l-6 462 -28 0 -27 0 -2 -137z"/>
<path d="M5934 12174 c8 -633 23 -1796 36 -2904 15 -1247 29 -2339 36 -2908
l7 -503 261 6 c143 3 839 10 1546 15 707 6 1429 13 1605 16 l320 6 -7 127
c-24 401 -61 714 -133 1111 -19 107 -51 301 -70 430 -78 524 -165 907 -302
1325 -226 690 -554 1322 -978 1890 -502 671 -1138 1242 -1840 1655 -133 78
-413 220 -464 235 l-24 7 7 -508z"/>
<path d="M9835 5724 c-269 -7 -701 -17 -960 -23 -258 -6 -652 -16 -875 -21
-223 -5 -601 -14 -840 -20 -239 -5 -622 -15 -850 -20 -395 -9 -715 -17 -1700
-40 -239 -6 -617 -15 -840 -20 -223 -5 -614 -14 -870 -20 -256 -6 -599 -14
-762 -18 -163 -4 -299 -10 -302 -13 -15 -14 71 -309 125 -428 16 -35 29 -65
29 -66 0 -2 -21 4 -47 13 -82 27 -292 22 -443 -11 -248 -53 -574 -171 -949
-343 -156 -71 -506 -247 -520 -260 -4 -3 29 -84 34 -84 1 0 48 25 105 55 366
197 875 413 1177 500 255 74 466 90 598 47 139 -47 237 -117 461 -332 271
-261 378 -317 588 -307 172 8 284 46 498 170 317 183 405 225 567 272 163 48
252 59 471 59 321 1 428 -33 739 -234 79 -51 181 -110 228 -132 218 -102 511
-129 746 -68 135 35 252 86 497 215 260 137 312 162 447 211 395 144 846 119
1213 -66 33 -17 137 -76 232 -131 218 -127 292 -165 397 -200 123 -42 228 -59
361 -59 229 0 359 49 520 196 164 149 243 200 380 243 193 61 372 76 835 68
198 -4 423 -11 500 -17 129 -10 303 -33 336 -44 20 -7 65 64 47 76 -68 44
-532 78 -1061 78 -351 0 -517 -19 -700 -81 -148 -49 -207 -87 -382 -242 -122
-108 -193 -149 -300 -172 -75 -16 -281 -20 -303 -7 -9 6 13 39 80 118 469 549
989 1166 987 1167 -2 2 -224 -3 -494 -9z"/>
</g>
</svg>
